<svg
      width="100%"
      height="100%"
      viewBox="0 0 800 600"
      version="1.1"
      xmlns="http://www.w3.org/2000/svg"
      xmlnsXlink="http://www.w3.org/1999/xlink"
      xmlSpace="preserve"
      xmlnsSerif="http://www.serif.com/"
      style="fill-rule:evenodd;clip-rule:evenodd;stroke-linejoin:round;stroke-miterlimit:2;"
    >
      <g transform="matrix(0.835989,0,0,0.835989,-1071.42,-2390.84)">
        <path
          d="M1871.17,3107.5L1857.98,3107.5L1791.35,3276.42L1711.06,3107.5L1576.53,3107.5L1728.34,3432.81L1741.25,3432.81L1871.17,3107.5ZM1515.77,3107.5L1502.86,3107.5L1502.86,3233.9C1502.86,3233.9 1502.86,3413.07 1388.99,3413.07L1388.99,3425.97L1619.02,3425.97L1619.02,3413.07C1514.25,3413.07 1515.77,3233.9 1515.77,3233.9L1515.77,3107.5ZM2052.51,2970.5L1943.19,2970.5L1943.19,3334.11C1943.19,3385.74 1920.41,3413.07 1888.53,3413.07L1888.53,3425.97L2117.8,3425.97L2117.8,3413.07C2085.15,3413.07 2052.51,3385.74 2052.51,3334.11L2052.51,2970.5ZM1646.43,2971.55L1608.39,2891.51L1417.08,2891.51L1417.08,2904.42C1436.06,2905.94 1474.02,2905.94 1502.86,2956.8L1512.86,2971.55L1646.43,2971.55ZM1911.61,2971.55L1925.47,2971.55L1943.19,2927.19L1943.19,2971.55L2052.51,2971.55L2052.51,2971.23C2052.51,2924.92 2078.32,2904.42 2110.97,2904.42L2110.97,2891.51L1943.19,2891.51L1911.61,2971.55Z"
          style="fill:rgb(127,127,127);fill-rule:nonzero;"
        />
        <g transform="matrix(0.632649,0,0,0.632649,635.173,2697.73)">
          <path
            d="M2067.52,362.706L2067.52,306.306L1827.52,914.706L1538.32,306.306L1235.92,306.306L1235.92,326.706C1265.92,329.106 1325.92,329.106 1371.52,409.506L1391.92,441.906L1727.92,1161.91L1748.32,1161.91L2067.52,362.706Z"
            style="fill:white;fill-rule:nonzero;"
          />
        </g>
      </g>
      <g transform="matrix(0.835989,0,0,0.835989,-841.657,-1272.84)">
        <path
          d="M1239.45,2155.84L1254.04,2199.11L1268.46,2155.84L1276.18,2155.84L1257.64,2206.65L1250.34,2206.65L1231.84,2155.84L1239.45,2155.84Z"
          style="fill:white;fill-rule:nonzero;"
        />
        <path
          d="M1283.34,2155.84L1320.38,2155.84L1320.38,2162.07L1290.05,2162.07L1290.05,2177.49L1318.1,2177.49L1318.1,2183.37L1290.05,2183.37L1290.05,2200.6L1320.9,2200.6L1320.9,2206.65L1283.34,2206.65L1283.34,2155.84Z"
          style="fill:white;fill-rule:nonzero;"
        />
        <path
          d="M1325.98,2155.84L1334.01,2155.84L1348.6,2180.26L1363.2,2155.84L1371.26,2155.84L1352.06,2186.18L1352.06,2206.65L1345.18,2206.65L1345.18,2186.18L1325.98,2155.84Z"
          style="fill:white;fill-rule:nonzero;"
        />
        <path
          d="M1381.67,2190.26C1381.83,2193.14 1382.51,2195.48 1383.71,2197.28C1385.99,2200.64 1390.01,2202.33 1395.78,2202.33C1398.36,2202.33 1400.71,2201.96 1402.83,2201.22C1406.94,2199.79 1408.99,2197.23 1408.99,2193.54C1408.99,2190.78 1408.12,2188.8 1406.39,2187.63C1404.64,2186.47 1401.9,2185.47 1398.16,2184.62L1391.28,2183.06C1386.79,2182.05 1383.6,2180.93 1381.74,2179.71C1378.51,2177.59 1376.89,2174.41 1376.89,2170.2C1376.89,2165.63 1378.47,2161.88 1381.63,2158.95C1384.79,2156.03 1389.26,2154.56 1395.05,2154.56C1400.38,2154.56 1404.9,2155.85 1408.63,2158.42C1412.35,2160.99 1414.21,2165.1 1414.21,2170.75L1407.74,2170.75C1407.4,2168.03 1406.66,2165.94 1405.53,2164.49C1403.43,2161.84 1399.87,2160.51 1394.84,2160.51C1390.79,2160.51 1387.87,2161.37 1386.09,2163.07C1384.32,2164.78 1383.43,2166.76 1383.43,2169.02C1383.43,2171.51 1384.47,2173.33 1386.54,2174.48C1387.9,2175.22 1390.98,2176.14 1395.78,2177.25L1402.9,2178.88C1406.34,2179.66 1408.99,2180.73 1410.86,2182.09C1414.09,2184.47 1415.7,2187.92 1415.7,2192.43C1415.7,2198.06 1413.65,2202.09 1409.56,2204.51C1405.47,2206.93 1400.71,2208.14 1395.29,2208.14C1388.98,2208.14 1384.03,2206.52 1380.45,2203.3C1376.88,2200.09 1375.13,2195.74 1375.2,2190.26L1381.67,2190.26Z"
          style="fill:white;fill-rule:nonzero;"
        />
        <rect
          x="1425.97"
          y="2155.84"
          width="6.952"
          height="50.808"
          style="fill:white;fill-rule:nonzero;"
        />
        <path
          d="M1444.75,2155.84L1481.79,2155.84L1481.79,2162.07L1451.46,2162.07L1451.46,2177.49L1479.51,2177.49L1479.51,2183.37L1451.46,2183.37L1451.46,2200.6L1482.31,2200.6L1482.31,2206.65L1444.75,2206.65L1444.75,2155.84Z"
          style="fill:white;fill-rule:nonzero;"
        />
        <path
          d="M1520.77,2206.65L1510.85,2206.65L1510.85,2155.67L1526.34,2155.67L1535.61,2195.76L1544.81,2155.67L1560.13,2155.67L1560.13,2206.65L1550.21,2206.65L1550.21,2172.17C1550.21,2171.18 1550.22,2169.79 1550.24,2168C1550.26,2166.21 1550.28,2164.84 1550.28,2163.87L1540.63,2206.65L1530.29,2206.65L1520.7,2163.87C1520.7,2164.84 1520.72,2166.21 1520.74,2168C1520.76,2169.79 1520.77,2171.18 1520.77,2172.17L1520.77,2206.65Z"
          style="fill:white;fill-rule:nonzero;"
        />
        <path
          d="M1605.51,2184.38L1580.75,2184.38L1580.75,2197.49L1608.97,2197.49L1608.97,2206.65L1570.34,2206.65L1570.34,2155.67L1607.72,2155.67L1607.72,2164.7L1580.75,2164.7L1580.75,2175.52L1605.51,2175.52L1605.51,2184.38Z"
          style="fill:white;fill-rule:nonzero;"
        />
        <path
          d="M1639.23,2206.65L1617.27,2206.65L1617.27,2155.67L1639.23,2155.67C1642.39,2155.72 1645.02,2156.08 1647.12,2156.78C1650.69,2157.95 1653.59,2160.11 1655.8,2163.24C1657.58,2165.78 1658.79,2168.52 1659.43,2171.47C1660.08,2174.43 1660.4,2177.24 1660.4,2179.91C1660.4,2186.69 1659.04,2192.43 1656.32,2197.14C1652.63,2203.48 1646.93,2206.65 1639.23,2206.65ZM1647.15,2168.67C1645.52,2165.91 1642.28,2164.52 1637.43,2164.52L1627.61,2164.52L1627.61,2197.8L1637.43,2197.8C1642.46,2197.8 1645.97,2195.32 1647.95,2190.36C1649.03,2187.64 1649.57,2184.4 1649.57,2180.64C1649.57,2175.45 1648.77,2171.46 1647.15,2168.67Z"
          style="fill:white;fill-rule:nonzero;"
        />
        <rect
          x="1667.59"
          y="2155.67"
          width="10.583"
          height="50.981"
          style="fill:white;fill-rule:nonzero;"
        />
        <path
          d="M1717.95,2196.17L1699.17,2196.17L1695.64,2206.65L1684.51,2206.65L1702.7,2155.67L1714.74,2155.67L1732.79,2206.65L1721.24,2206.65L1717.95,2196.17ZM1714.98,2187.39L1708.61,2167.32L1702.04,2187.39L1714.98,2187.39Z"
          style="fill:white;fill-rule:nonzero;"
        />
      </g>
    </svg>
